<?xml version="1.0" encoding="UTF-8" standalone="no"?>
<!-- Created with Inkscape (http://www.inkscape.org/) -->

<svg
   xmlns:dc="http://purl.org/dc/elements/1.1/"
   xmlns:cc="http://creativecommons.org/ns#"
   xmlns:rdf="http://www.w3.org/1999/02/22-rdf-syntax-ns#"
   xmlns:svg="http://www.w3.org/2000/svg"
   xmlns="http://www.w3.org/2000/svg"
   xmlns:sodipodi="http://sodipodi.sourceforge.net/DTD/sodipodi-0.dtd"
   xmlns:inkscape="http://www.inkscape.org/namespaces/inkscape"
   id="svg3167"
   version="1.1"
   inkscape:version="0.48.2 r9819"
   width="200"
   height="156"
   sodipodi:docname="corvus.gif">
  <metadata
     id="metadata3173">
    <rdf:RDF>
      <cc:Work
         rdf:about="">
        <dc:format>image/svg+xml</dc:format>
        <dc:type
           rdf:resource="http://purl.org/dc/dcmitype/StillImage" />
        <dc:title></dc:title>
      </cc:Work>
    </rdf:RDF>
  </metadata>
  <defs
     id="defs3171" />
  <sodipodi:namedview
     pagecolor="#ffffff"
     bordercolor="#666666"
     borderopacity="1"
     objecttolerance="10"
     gridtolerance="10"
     guidetolerance="10"
     inkscape:pageopacity="0"
     inkscape:pageshadow="2"
     inkscape:window-width="767"
     inkscape:window-height="610"
     id="namedview3169"
     showgrid="false"
     inkscape:zoom="1.5128205"
     inkscape:cx="104.04102"
     inkscape:cy="78"
     inkscape:window-x="217"
     inkscape:window-y="38"
     inkscape:window-maximized="0"
     inkscape:current-layer="svg3167" />
  <path
     style="fill:#000000"
     d="m 140.40363,150.19336 c -2.59337,-0.58245 -5.40342,-2.22436 -7.5,-4.38226 -3.16676,-3.25936 -3.72729,-3.45141 -10.10278,-3.46147 -3.7125,-0.006 -6.75,-0.41251 -6.75,-0.90366 0,-1.55321 3.06433,-2.14293 5.19894,-1.00052 2.88521,1.54412 7.00729,-0.35744 6.12611,-2.82605 -1.20278,-3.3696 -2.59296,-4.38038 -5.23439,-3.80586 -1.7277,0.37579 -4.55011,-0.39954 -8.47305,-2.32755 -5.32335,-2.61629 -6.13115,-2.76123 -8.5,-1.52518 -3.09583,1.61538 -6.745954,1.78855 -7.627694,0.36186 -0.34546,-0.55897 -1.15952,-0.71796 -1.80902,-0.3533 -0.79003,0.44357 -0.7658,0.21591 0.0732,-0.68779 0.68976,-0.74295 3.06086,-1.39614 5.269124,-1.45155 6.98774,-0.17531 7.41767,-1.79589 2.9021,-10.93932 -2.15892,-4.37155 -3.92532,-8.53405 -3.92532,-9.25 0,-0.71595 -0.377774,-1.30173 -0.839484,-1.30173 -0.46172,0 -1.31846,-1.05123 -1.90387,-2.33606 -0.62353,-1.3685 -3.72868,-3.66094 -7.49701,-5.53483 -6.06667,-3.01678 -7.06389,-3.19934 -17.52842,-3.20886 -11.47321,-0.0104 -19.13665,1.39569 -27.76599,5.09466 -2.54707,1.0918 -5.64373,1.98509 -6.88147,1.98509 -1.23773,0 -2.57223,0.3218 -2.96554,0.71512 -1.21691,1.2169 -9.90456,3.19433 -14.23798,3.24075 -3.34159,0.0358 -4.8999,-0.63971 -8.25,-3.57627 -2.2716296,-1.99123 -4.1302396,-4.20826 -4.1302396,-4.92676 0,-1.32194 5.2876896,-4.45284 7.5202896,-4.45284 0.66715,0 3.41051,-0.85033 6.09636,-1.88963 2.68584,-1.03929 6.85686,-2.48146 9.26893,-3.2048 7.16858,-2.14976 2.95577,-2.16804 -5.41558,-0.0235 -8.31799,2.13087 -8.58222,1.35893 -0.83408,-2.43671 l 4.86408,-2.382813 -5.69098,-0.03127 c -3.13004,-0.0172 -5.9691,-0.481272 -6.30902,-1.031272 -0.33992,-0.55 -0.47262,-1 -0.2949,-1 0.17773,0 2.78543,-0.9 5.7949,-2 3.00947,-1.1 7.34091,-2 9.62542,-2 4.7349,0 18.38169,-2.417109 26.03994,-4.612172 4.35729,-1.248919 14.06612,-7.569756 27.83464,-18.121463 0.55,-0.421501 2.575,-1.572322 4.5,-2.557381 1.925,-0.985058 4.4,-2.348932 5.5,-3.030829 4.715104,-2.922926 9.325064,-5.212756 14.000004,-6.953993 7.59242,-2.827886 19.83194,-6.724162 21.12287,-6.724162 1.60423,0 3.93353,-3.874234 4.70752,-7.829835 2.21943,-11.342802 12.8059,-22.1701648 21.67692,-22.1701648 4.67426,0 14.95456,5.7761238 15.018,8.4380578 0.0139,0.584068 3.1072,2.547565 6.87396,4.363326 6.70341,3.231374 12.05103,7.581651 10.82586,8.806822 -0.33885,0.33885 -3.5167,0.110973 -7.06189,-0.506394 -7.3009,-1.271398 -8.84346,-0.896293 -13.41263,3.261554 -3.70029,3.367192 -3.8997,4.958691 -2.10156,16.773201 1.12893,7.417604 1.06899,7.928932 -2.09052,17.833083 -3.1931,10.00948 -7.05926,18.413891 -11.04662,24.013615 -1.10655,1.55401 -2.01191,3.12598 -2.01191,3.49327 0,0.36729 -2.11243,2.89893 -4.69429,5.62586 -3.81911,4.0337 -5.93522,5.33498 -11.35035,6.97978 -6.6981,2.03448 -9.19959,4.16919 -12.75605,10.88569 -1.61034,3.04117 -0.74784,7.03213 1.51974,7.03213 1.24236,0 1.38824,0.29271 0.55909,1.12186 -1.78105,1.78105 -0.31757,3.87814 2.7064,3.87814 1.52382,0 3.29146,0.62763 3.9281,1.39474 0.88835,1.07039 0.85869,1.38258 -0.12756,1.34246 -3.99385,-0.16245 -4.98174,0.30398 -4.26304,2.0128 0.40481,0.9625 0.82211,2.57348 0.92734,3.57996 0.29722,2.84281 2.57611,3.66206 8.55062,3.0739 l 5.5,-0.54144 -3.5,1.81879 -3.5,1.81879 7.9965,0.2965 c 4.39808,0.16308 8.3504,0.6504 8.78294,1.08294 0.43254,0.43254 -0.0159,0.78139 -0.9965,0.77522 -9.82562,-0.0618 -16.31097,0.49097 -15.78294,1.34534 0.33992,0.55 1.41304,1 2.3847,1 0.97167,0 2.82355,1.125 4.1153,2.5 1.29175,1.375 2.15769,2.45181 1.92431,2.39291 -0.23337,-0.0589 -2.29056,-0.52624 -4.57153,-1.03853 z m -15.82884,-18.81565 c -0.69172,-1.11922 -7.35894,-2.53706 -8.16058,-1.73542 -0.29887,0.29886 1.40962,0.97969 3.79662,1.51295 2.38701,0.53325 4.47908,1.01775 4.64904,1.07665 0.16996,0.0589 0.0417,-0.32548 -0.28508,-0.85418 z m -7.69215,-7.05404 c 3.73342,-0.0343 4.47047,-1.50589 2.55526,-5.10199 -1.25204,-2.35091 -1.70802,-5.01685 -1.49491,-8.74021 l 0.30663,-5.3575 -4.99154,0.68651 c -3.20971,0.44145 -5.22959,0.30134 -5.6584,-0.39249 -0.9411,-1.52274 -3.51096,-1.34128 -4.13777,0.29216 -0.50882,1.32598 5.62877,15.76697 7.82677,18.41539 0.59543,0.71745 1.72231,1.05898 2.50417,0.75895 0.78187,-0.30003 2.17227,-0.5524 3.08979,-0.56082 z"
     id="path3177"
     inkscape:connector-curvature="0" />
</svg>
