<svg
   xmlns:dc="http://purl.org/dc/elements/1.1/"
   xmlns:cc="http://creativecommons.org/ns#"
   xmlns:rdf="http://www.w3.org/1999/02/22-rdf-syntax-ns#"
   xmlns:svg="http://www.w3.org/2000/svg"
   xmlns="http://www.w3.org/2000/svg"
   xmlns:sodipodi="http://sodipodi.sourceforge.net/DTD/sodipodi-0.dtd"
   xmlns:inkscape="http://www.inkscape.org/namespaces/inkscape"
   version="1.0"
   width="370pt"
   height="648pt"
   viewBox="0 0 370 648"
   preserveAspectRatio="xMidYMid meet"
   id="svg3385"
   inkscape:version="0.48.4 r9943 custom"
   sodipodi:docname="vud_grey.svg">
  <defs
     id="defs3745" />
  <sodipodi:namedview
     pagecolor="#ffffff"
     bordercolor="#666666"
     borderopacity="1"
     objecttolerance="10"
     gridtolerance="10"
     guidetolerance="10"
     inkscape:pageopacity="0"
     inkscape:pageshadow="2"
     inkscape:window-width="934"
     inkscape:window-height="688"
     id="namedview3743"
     showgrid="false"
     inkscape:zoom="0.68518519"
     inkscape:cx="231.25"
     inkscape:cy="405"
     inkscape:window-x="0"
     inkscape:window-y="22"
     inkscape:window-maximized="0"
     inkscape:current-layer="svg3385" />
  <metadata
     id="metadata3387">
Created by potrace 1.8, written by Peter Selinger 2001-2007
<rdf:RDF>
  <cc:Work
     rdf:about="">
    <dc:format>image/svg+xml</dc:format>
    <dc:type
       rdf:resource="http://purl.org/dc/dcmitype/StillImage" />
  </cc:Work>
</rdf:RDF>
</metadata>
  <g
     transform="translate(0,648) scale(0.205063,-0.205063)"
     fill="#000000"
     stroke="none"
     id="g3389"
     style="fill:#808080">
    <path
       d="M75 3060 c-2 -3 -6 -531 -10 -1175 -3 -643 -7 -1318 -8 -1499 -2 -293 0 -330 14 -339 9 -6 25 -7 35 -2 11 4 28 9 39 10 72 11 106 19 111 26 3 5 14 9 25 9 21 0 26 15 8 26 -6 3 -16 1 -22 -5 -6 -6 -26 -11 -44 -11 -19 0 -36 -6 -39 -13 -3 -8 -21 -13 -47 -13 l-42 1 -1 80 c0 44 3 87 7 96 5 9 5 20 1 25 -4 5 -5 78 -2 162 3 84 2 156 -2 160 -10 11 3 63 16 60 23 -4 126 35 126 48 0 20 -20 17 -79 -12 -57 -29 -72 -24 -64 18 4 20 12 28 32 31 l26 4 -27 2 -27 1 -1 180 c0 170 1 180 20 192 11 7 20 18 20 25 0 19 -17 16 -24 -4 -5 -12 -9 -14 -18 -5 -9 9 -7 19 10 42 18 24 19 30 7 30 -25 0 -17 37 13 59 15 11 37 37 48 58 10 21 25 43 33 49 9 7 12 18 7 30 -7 19 -8 19 -22 0 -8 -11 -14 -26 -14 -33 0 -8 -13 -28 -30 -46 -16 -18 -30 -35 -30 -39 0 -5 -5 -8 -10 -8 -14 0 -13 617 1 625 5 4 5 14 -1 25 -8 14 -7 25 2 40 9 13 9 23 3 28 -13 9 -14 275 -1 284 6 4 5 16 -4 32 -12 23 -11 28 4 39 16 12 16 14 2 26 -18 16 -21 42 -5 58 8 8 8 13 0 17 -17 11 -13 53 5 60 10 4 25 -1 36 -11 14 -12 21 -14 30 -5 8 8 4 14 -18 22 -62 22 -59 12 -60 214 -1 107 2 186 8 186 5 0 4 8 -2 19 -5 11 -10 35 -10 54 0 42 21 51 70 31 18 -8 42 -14 54 -14 12 0 27 -5 34 -12 9 -9 13 -7 18 5 9 26 -4 37 -45 37 -20 0 -41 4 -47 9 -10 10 -104 19 -109 11z"
       id="path3391"
       style="fill:#808080" />
    <path
       d="M335 2990 c-3 -6 2 -13 12 -16 10 -3 31 -12 48 -19 22 -10 31 -11 37 -2 9 15 0 27 -22 27 -10 0 -22 5 -25 10 -8 13 -42 13 -50 0z"
       id="path3393"
       style="fill:#808080" />
    <path
       d="M1013 2943 c-35 -46 -82 -91 -105 -98 -19 -7 -25 -35 -8 -35 20 0 9 -26 -30 -69 -22 -24 -40 -45 -40 -47 0 -13 -47 -74 -57 -74 -7 0 -13 -7 -13 -15 0 -13 -44 -81 -87 -135 -6 -8 -47 -62 -90 -120 -42 -58 -83 -109 -90 -113 -7 -4 -13 -14 -13 -22 0 -8 -11 -22 -25 -31 -14 -9 -25 -25 -25 -35 0 -10 -9 -23 -20 -29 -11 -6 -20 -19 -20 -30 0 -10 -3 -20 -7 -22 -5 -1 -23 -22 -41 -46 -32 -41 -35 -62 -8 -62 11 0 67 71 102 131 6 11 18 27 27 37 10 10 17 22 17 26 0 15 30 37 41 30 8 -5 9 -3 4 5 -9 16 14 61 32 61 7 0 13 -6 13 -12 1 -15 66 -88 79 -88 5 0 12 -12 15 -26 8 -32 35 -74 47 -74 19 0 8 39 -15 58 -14 10 -28 31 -31 45 -4 15 -27 45 -51 67 -24 22 -44 44 -44 49 0 12 151 214 167 224 7 4 13 14 13 21 0 8 8 24 18 36 l18 22 75 -76 c79 -81 108 -97 83 -47 -15 31 -119 131 -135 131 -17 0 -8 25 21 59 l29 34 65 -67 c36 -37 66 -71 66 -76 0 -5 9 -14 20 -20 11 -6 20 -17 20 -26 0 -8 18 -33 40 -56 34 -36 40 -39 46 -23 5 13 -4 29 -39 61 -25 24 -48 53 -52 63 -7 23 -105 125 -129 134 -23 9 -20 31 10 77 19 29 32 39 44 35 14 -4 26 12 56 75 21 44 42 80 47 80 10 0 9 38 -2 45 -5 3 -22 -11 -38 -32z"
       id="path3395"
       style="fill:#808080" />
    <path
       d="M454 2949 c-10 -17 23 -46 38 -31 8 8 8 15 -2 27 -15 18 -26 19 -36 4z"
       id="path3397"
       style="fill:#808080" />
    <path
       d="M132 2928 c3 -7 24 -17 49 -21 24 -5 49 -13 55 -18 13 -10 24 -2 24 19 0 9 -7 13 -20 9 -10 -3 -27 1 -37 9 -23 17 -76 19 -71 2z"
       id="path3399"
       style="fill:#808080" />
    <path
       d="M520 2909 c0 -14 30 -38 48 -39 16 0 15 18 -2 36 -17 17 -46 19 -46 3z"
       id="path3401"
       style="fill:#808080" />
    <path
       d="M277 2893 c-13 -12 -7 -23 13 -23 11 0 20 7 20 15 0 15 -21 21 -33 8z"
       id="path3403"
       style="fill:#808080" />
    <path
       d="M330 2865 c0 -8 7 -15 15 -15 8 0 15 7 15 15 0 8 -7 15 -15 15 -8 0 -15 -7 -15 -15z"
       id="path3405"
       style="fill:#808080" />
    <path
       d="M590 2867 c0 -16 38 -40 50 -32 16 10 -8 45 -30 45 -11 0 -20 -6 -20 -13z"
       id="path3407"
       style="fill:#808080" />
    <path
       d="M377 2854 c-10 -11 3 -24 24 -24 10 0 19 7 19 15 0 15 -31 21 -43 9z"
       id="path3409"
       style="fill:#808080" />
    <path
       d="M140 2836 c0 -14 37 -29 52 -20 16 10 7 26 -12 21 -11 -3 -20 -1 -20 4 0 5 -4 9 -10 9 -5 0 -10 -6 -10 -14z"
       id="path3411"
       style="fill:#808080" />
    <path
       d="M436 2832 c-8 -14 23 -45 39 -38 13 4 14 10 5 26 -11 20 -35 27 -44 12z"
       id="path3413"
       style="fill:#808080" />
    <path
       d="M670 2830 c0 -24 95 -99 107 -86 7 7 -85 96 -99 96 -4 0 -8 -5 -8 -10z"
       id="path3415"
       style="fill:#808080" />
    <path
       d="M215 2820 c-8 -14 4 -32 18 -27 7 2 26 -2 42 -11 59 -30 65 -32 75 -32 5 0 10 6 10 14 0 14 -71 50 -100 51 -8 0 -20 3 -27 8 -6 4 -14 3 -18 -3z"
       id="path3417"
       style="fill:#808080" />
    <path
       d="M510 2789 c0 -14 25 -39 39 -39 15 0 14 23 -1 38 -15 15 -38 16 -38 1z"
       id="path3419"
       style="fill:#808080" />
    <path
       d="M375 2750 c-6 -10 41 -37 50 -28 3 3 3 13 -1 22 -7 18 -39 22 -49 6z"
       id="path3421"
       style="fill:#808080" />
    <path
       d="M596 2743 c-12 -12 -6 -21 28 -42 43 -27 60 -28 44 -2 -14 23 -63 53 -72 44z"
       id="path3423"
       style="fill:#808080" />
    <path
       d="M450 2706 c0 -11 9 -16 26 -16 31 0 28 23 -4 28 -15 2 -22 -2 -22 -12z"
       id="path3425"
       style="fill:#808080" />
    <path
       d="M527 2673 c-11 -10 24 -43 45 -43 23 0 23 12 0 33 -20 18 -34 21 -45 10z"
       id="path3427"
       style="fill:#808080" />
    <path
       d="M625 2611 c-5 -10 53 -71 68 -71 16 0 5 28 -21 53 -30 29 -38 32 -47 18z"
       id="path3429"
       style="fill:#808080" />
    <path
       d="M210 2485 c0 -11 7 -15 23 -13 12 2 22 8 22 13 0 6 -10 11 -22 13 -16 2 -23 -2 -23 -13z"
       id="path3431"
       style="fill:#808080" />
    <path
       d="M776 2463 c9 -15 26 -37 37 -48 10 -11 26 -30 34 -42 15 -23 38 -30 47 -15 6 9 -110 132 -125 132 -7 0 -3 -12 7 -27z"
       id="path3433"
       style="fill:#808080" />
    <path
       d="M274 2469 c-8 -14 21 -43 35 -35 7 5 7 13 -2 26 -13 23 -23 25 -33 9z"
       id="path3435"
       style="fill:#808080" />
    <path
       d="M334 2439 c-7 -13 24 -49 43 -49 16 0 16 5 3 29 -12 23 -37 34 -46 20z"
       id="path3437"
       style="fill:#808080" />
    <path
       d="M140 2431 c0 -6 10 -11 21 -11 12 0 28 -8 35 -17 9 -13 16 -15 24 -7 14 14 -4 29 -47 39 -21 4 -33 3 -33 -4z"
       id="path3439"
       style="fill:#808080" />
    <path
       d="M250 2386 c0 -14 29 -31 38 -22 2 3 2 12 -1 21 -8 19 -37 20 -37 1z"
       id="path3441"
       style="fill:#808080" />
    <path
       d="M967 2394 c-9 -9 21 -58 44 -72 26 -16 25 1 -2 44 -21 34 -30 40 -42 28z"
       id="path3443"
       style="fill:#808080" />
    <path
       d="M430 2369 c0 -15 51 -59 68 -59 20 0 14 15 -18 43 -32 29 -50 34 -50 16z"
       id="path3445"
       style="fill:#808080" />
    <path
       d="M1110 2369 c0 -15 54 -62 58 -50 7 20 -19 61 -38 61 -11 0 -20 -5 -20 -11z"
       id="path3447"
       style="fill:#808080" />
    <path
       d="M316 2363 c-12 -12 -6 -20 35 -47 44 -30 57 -29 38 2 -15 24 -64 54 -73 45z"
       id="path3449"
       style="fill:#808080" />
    <path
       d="M152 2348 c5 -15 37 -18 41 -3 1 6 -9 12 -22 13 -16 3 -22 -1 -19 -10z"
       id="path3451"
       style="fill:#808080" />
    <path
       d="M224 2314 c3 -9 6 -18 6 -20 0 -2 7 -4 16 -4 8 0 33 -14 54 -31 48 -39 74 -30 34 12 -15 16 -34 29 -42 29 -7 0 -20 7 -28 15 -21 20 -48 20 -40 -1z"
       id="path3453"
       style="fill:#808080" />
    <path
       d="M914 2305 c-5 -13 1 -25 22 -43 26 -23 29 -24 32 -7 2 9 -8 29 -22 43 -23 24 -26 24 -32 7z"
       id="path3455"
       style="fill:#808080" />
    <path
       d="M1034 2285 c-7 -18 24 -58 37 -49 16 9 9 39 -11 52 -17 10 -21 10 -26 -3z"
       id="path3457"
       style="fill:#808080" />
    <path
       d="M1170 2280 c0 -22 35 -46 45 -30 8 12 -16 50 -32 50 -7 0 -13 -9 -13 -20z"
       id="path3459"
       style="fill:#808080" />
    <path
       d="M175 2269 c-8 -13 -6 -15 23 -24 22 -6 23 -5 13 14 -13 23 -26 27 -36 10z"
       id="path3461"
       style="fill:#808080" />
    <path
       d="M432 2271 c4 -13 18 -16 19 -4 0 4 -5 9 -11 12 -7 2 -11 -2 -8 -8z"
       id="path3463"
       style="fill:#808080" />
    <path
       d="M230 2236 c0 -14 41 -46 60 -46 21 0 9 26 -19 43 -35 21 -41 21 -41 3z"
       id="path3465"
       style="fill:#808080" />
    <path
       d="M970 2214 c0 -18 23 -44 39 -44 15 0 13 21 -3 43 -16 21 -36 22 -36 1z"
       id="path3467"
       style="fill:#808080" />
    <path
       d="M1210 2210 c0 -11 7 -20 15 -20 8 0 15 9 15 20 0 11 -7 20 -15 20 -8 0 -15 -9 -15 -20z"
       id="path3469"
       style="fill:#808080" />
    <path
       d="M1077 2214 c-9 -9 16 -44 30 -44 16 0 17 22 1 38 -13 13 -22 15 -31 6z"
       id="path3471"
       style="fill:#808080" />
    <path
       d="M320 2172 c0 -10 38 -42 50 -42 20 0 9 27 -15 38 -31 14 -35 15 -35 4z"
       id="path3473"
       style="fill:#808080" />
    <path
       d="M1237 2163 c-14 -13 -6 -33 13 -33 11 0 20 4 20 9 0 13 -26 32 -33 24z"
       id="path3475"
       style="fill:#808080" />
    <path
       d="M1015 2141 c-4 -13 1 -27 14 -40 12 -12 21 -30 21 -41 0 -11 5 -20 10 -20 6 0 10 -9 10 -19 0 -11 5 -32 12 -48 6 -15 10 -38 9 -49 -1 -12 5 -24 13 -27 10 -4 14 -16 11 -36 -4 -34 21 -94 36 -86 14 9 11 43 -10 83 -10 20 -16 43 -14 50 3 7 0 19 -7 27 -6 8 -9 19 -5 25 3 5 0 13 -8 16 -9 3 -12 14 -9 30 2 14 0 24 -7 24 -6 0 -11 11 -11 25 0 16 -6 25 -15 25 -9 0 -15 9 -15 23 0 12 -7 30 -14 40 -14 18 -14 18 -21 -2z"
       id="path3477"
       style="fill:#808080" />
    <path
       d="M1114 2146 c-9 -24 12 -44 28 -28 10 10 8 16 -5 29 -15 15 -17 15 -23 -1z"
       id="path3479"
       style="fill:#808080" />
    <path
       d="M1250 2107 c0 -8 6 -20 14 -26 8 -7 12 -21 9 -31 -4 -15 0 -20 16 -20 22 0 27 10 12 26 -5 5 -11 20 -13 34 -3 27 -38 42 -38 17z"
       id="path3481"
       style="fill:#808080" />
    <path
       d="M580 2100 c0 -14 42 -70 52 -70 17 0 7 37 -15 58 -26 24 -37 28 -37 12z"
       id="path3483"
       style="fill:#808080" />
    <path
       d="M1134 2089 c-4 -7 1 -16 10 -21 11 -6 15 -16 11 -29 -7 -21 16 -36 36 -23 9 5 7 11 -6 20 -10 8 -16 17 -12 20 8 8 -11 44 -23 44 -5 0 -12 -5 -16 -11z"
       id="path3485"
       style="fill:#808080" />
    <path
       d="M515 2070 c-4 -7 5 -24 22 -42 24 -23 31 -27 36 -15 7 19 -48 74 -58 57z"
       id="path3487"
       style="fill:#808080" />
    <path
       d="M722 2014 c2 -11 11 -20 22 -22 13 -3 17 1 14 14 -2 11 -11 20 -22 22 -13 3 -17 -1 -14 -14z"
       id="path3489"
       style="fill:#808080" />
    <path
       d="M1290 2000 c0 -11 6 -23 14 -26 8 -3 12 -13 9 -25 -4 -13 0 -19 11 -19 19 0 19 2 4 51 -12 41 -38 53 -38 19z"
       id="path3491"
       style="fill:#808080" />
    <path
       d="M480 2000 c0 -20 20 -50 34 -50 20 0 8 38 -15 51 -13 7 -19 6 -19 -1z"
       id="path3493"
       style="fill:#808080" />
    <path
       d="M644 1993 c3 -8 6 -17 6 -19 0 -2 7 -4 15 -4 23 0 18 27 -6 33 -15 4 -19 2 -15 -10z"
       id="path3495"
       style="fill:#808080" />
    <path
       d="M1170 1986 c0 -8 5 -18 10 -21 6 -3 10 -17 10 -31 0 -27 17 -32 27 -8 3 10 0 22 -8 28 -8 6 -13 19 -11 29 2 10 -3 17 -12 17 -9 0 -16 -6 -16 -14z"
       id="path3497"
       style="fill:#808080" />
    <path
       d="M570 1972 c0 -18 33 -45 43 -35 8 7 -22 53 -34 53 -5 0 -9 -8 -9 -18z"
       id="path3499"
       style="fill:#808080" />
    <path
       d="M750 1955 c0 -16 6 -25 15 -25 8 0 15 -7 15 -15 0 -8 5 -15 10 -15 12 0 13 5 1 28 -5 9 -12 25 -15 35 -8 26 -26 21 -26 -8z"
       id="path3501"
       style="fill:#808080" />
    <path
       d="M174 1945 c-6 -16 39 -75 58 -75 17 0 7 29 -22 60 -25 27 -31 29 -36 15z"
       id="path3503"
       style="fill:#808080" />
    <path
       d="M670 1930 c0 -11 6 -20 13 -20 19 0 27 10 20 26 -8 21 -33 17 -33 -6z"
       id="path3505"
       style="fill:#808080" />
    <path
       d="M527 1914 c-9 -10 2 -24 19 -24 8 0 14 7 14 15 0 15 -21 21 -33 9z"
       id="path3507"
       style="fill:#808080" />
    <path
       d="M607 1890 c3 -11 12 -20 19 -20 8 0 14 9 14 20 0 13 -7 20 -19 20 -14 0 -18 -5 -14 -20z"
       id="path3509"
       style="fill:#808080" />
    <path
       d="M694 1887 c-7 -20 3 -37 21 -37 23 0 26 16 5 35 -18 16 -20 16 -26 2z"
       id="path3511"
       style="fill:#808080" />
    <path
       d="M1214 1887 c-7 -20 -2 -47 11 -50 14 -3 19 43 6 56 -7 7 -12 6 -17 -6z"
       id="path3513"
       style="fill:#808080" />
    <path
       d="M1328 1874 c-9 -8 7 -59 18 -59 5 0 10 15 12 33 3 30 -13 44 -30 26z"
       id="path3515"
       style="fill:#808080" />
    <path
       d="M552 1854 c4 -21 22 -23 26 -1 2 10 -3 17 -13 17 -10 0 -15 -6 -13 -16z"
       id="path3517"
       style="fill:#808080" />
    <path
       d="M795 1860 c-4 -6 -3 -16 3 -22 6 -6 12 -6 17 2 4 6 3 16 -3 22 -6 6 -12 6 -17 -2z"
       id="path3519"
       style="fill:#808080" />
    <path
       d="M632 1843 c5 -25 28 -28 28 -4 0 12 -6 21 -16 21 -9 0 -14 -7 -12 -17z"
       id="path3521"
       style="fill:#808080" />
    <path
       d="M121 1828 c25 -48 59 -74 59 -45 0 14 -51 67 -63 67 -4 0 -2 -10 4 -22z"
       id="path3523"
       style="fill:#808080" />
    <path
       d="M250 1829 c0 -14 25 -39 39 -39 15 0 14 23 -1 38 -15 15 -38 16 -38 1z"
       id="path3525"
       style="fill:#808080" />
    <path
       d="M710 1825 c0 -8 7 -15 15 -15 8 0 15 7 15 15 0 8 -7 15 -15 15 -8 0 -15 -7 -15 -15z"
       id="path3527"
       style="fill:#808080" />
    <path
       d="M215 1811 c-9 -15 8 -35 24 -30 8 3 7 10 -2 23 -10 14 -16 16 -22 7z"
       id="path3529"
       style="fill:#808080" />
    <path
       d="M570 1790 c0 -11 6 -20 13 -20 19 0 27 10 20 26 -8 21 -33 17 -33 -6z"
       id="path3531"
       style="fill:#808080" />
    <path
       d="M650 1784 c0 -17 22 -14 28 4 2 7 -3 12 -12 12 -9 0 -16 -7 -16 -16z"
       id="path3533"
       style="fill:#808080" />
    <path
       d="M1354 1792 c-11 -8 4 -174 15 -167 10 6 13 162 3 169 -4 2 -12 2 -18 -2z"
       id="path3535"
       style="fill:#808080" />
    <path
       d="M730 1759 c0 -17 4 -38 9 -47 5 -9 10 -44 12 -76 l4 -59 -143 2 c-134 2 -143 1 -140 -16 3 -16 12 -18 70 -15 l67 4 10 -34 c6 -23 9 -26 10 -12 1 31 27 50 45 35 11 -10 20 -10 36 -1 32 17 44 -1 45 -65 0 -70 20 -72 21 -2 1 28 2 58 3 65 1 14 47 16 56 2 4 -7 12 -7 25 0 25 14 287 13 295 0 4 -7 11 -7 18 -2 17 14 166 13 188 -1 14 -9 21 -9 31 1 18 18 118 16 118 -3 0 -9 9 -15 23 -14 43 1 178 34 180 44 1 6 -36 17 -83 25 -47 8 -90 18 -95 22 -13 8 -30 -3 -30 -19 0 -7 -3 -13 -7 -13 -5 0 -169 0 -365 0 l-358 0 1 65 c1 36 -2 68 -7 71 -5 3 -9 21 -9 40 0 24 -5 34 -15 34 -10 0 -15 -10 -15 -31z"
       id="path3537"
       style="fill:#808080" />
    <path
       d="M1236 1783 c-3 -3 -6 -21 -6 -40 0 -23 5 -33 15 -33 10 0 15 10 15 34 0 34 -11 52 -24 39z"
       id="path3539"
       style="fill:#808080" />
    <path
       d="M817 1763 c-10 -10 -8 -41 2 -48 17 -10 33 31 17 44 -7 6 -16 8 -19 4z"
       id="path3541"
       style="fill:#808080" />
    <path
       d="M177 1752 c-3 -4 3 -23 14 -40 10 -18 19 -39 19 -47 0 -8 7 -15 15 -15 19 0 20 29 1 36 -8 3 -12 13 -9 23 5 18 -32 58 -40 43z"
       id="path3543"
       style="fill:#808080" />
    <path
       d="M292 1748 c3 -7 13 -15 22 -16 12 -3 17 1 14 10 -3 7 -13 15 -22 16 -12 3 -17 -1 -14 -10z"
       id="path3545"
       style="fill:#808080" />
    <path
       d="M657 1753 c-12 -11 -8 -23 8 -23 8 0 15 7 15 15 0 16 -12 20 -23 8z"
       id="path3547"
       style="fill:#808080" />
    <path
       d="M1134 1749 c-4 -7 -3 -14 4 -17 6 -2 9 -9 6 -16 -3 -7 0 -26 6 -42 10 -26 12 -27 22 -11 6 11 6 32 1 54 -9 39 -26 52 -39 32z"
       id="path3549"
       style="fill:#808080" />
    <path
       d="M240 1742 c0 -5 6 -16 13 -27 10 -13 16 -15 21 -6 4 6 2 18 -4 26 -13 16 -30 20 -30 7z"
       id="path3551"
       style="fill:#808080" />
    <path
       d="M595 1711 c-7 -12 12 -24 25 -16 11 7 4 25 -10 25 -5 0 -11 -4 -15 -9z"
       id="path3553"
       style="fill:#808080" />
    <path
       d="M675 1709 c-10 -15 3 -25 16 -12 7 7 7 13 1 17 -6 3 -14 1 -17 -5z"
       id="path3555"
       style="fill:#808080" />
    <path
       d="M1236 1692 c-3 -6 -1 -14 5 -17 15 -10 25 3 12 16 -7 7 -13 7 -17 1z"
       id="path3557"
       style="fill:#808080" />
    <path
       d="M317 1654 c-10 -11 3 -24 24 -24 10 0 19 7 19 15 0 15 -31 21 -43 9z"
       id="path3559"
       style="fill:#808080" />
    <path
       d="M1240 1641 c0 -12 6 -21 16 -21 9 0 14 7 12 17 -5 25 -28 28 -28 4z"
       id="path3561"
       style="fill:#808080" />
    <path
       d="M281 1618 c-1 -28 3 -38 14 -38 8 0 15 5 15 10 0 6 -4 10 -9 10 -5 0 -12 12 -14 28 -3 22 -4 20 -6 -10z"
       id="path3563"
       style="fill:#808080" />
    <path
       d="M835 1640 c-8 -13 4 -32 16 -25 12 8 12 35 0 35 -6 0 -13 -4 -16 -10z"
       id="path3565"
       style="fill:#808080" />
    <path
       d="M217 1634 c-9 -10 2 -24 19 -24 8 0 14 7 14 15 0 15 -21 21 -33 9z"
       id="path3567"
       style="fill:#808080" />
    <path
       d="M227 1583 c-9 -15 -1 -87 10 -90 12 -4 25 60 16 83 -6 15 -19 19 -26 7z"
       id="path3569"
       style="fill:#808080" />
    <path
       d="M337 1570 c-7 -28 1 -46 14 -33 6 6 6 19 1 33 l-9 24 -6 -24z"
       id="path3571"
       style="fill:#808080" />
    <path
       d="M836 1503 c-12 -12 -6 -33 9 -33 8 0 15 6 15 14 0 17 -14 28 -24 19z"
       id="path3573"
       style="fill:#808080" />
    <path
       d="M1152 1493 c0 -10 -3 -30 -7 -45 -5 -18 -3 -28 4 -28 6 0 14 0 19 0 4 0 8 20 8 45 1 32 -2 45 -11 45 -8 0 -13 -8 -13 -17z"
       id="path3575"
       style="fill:#808080" />
    <path
       d="M272 1489 c2 -6 8 -10 13 -10 5 0 11 4 13 10 2 6 -4 11 -13 11 -9 0 -15 -5 -13 -11z"
       id="path3577"
       style="fill:#808080" />
    <path
       d="M324 1476 c-18 -14 -18 -15 -1 -22 22 -8 46 11 31 26 -7 7 -17 5 -30 -4z"
       id="path3579"
       style="fill:#808080" />
    <path
       d="M214 1466 c-4 -10 -2 -22 4 -28 8 -8 13 -7 18 6 4 10 2 22 -4 28 -8 8 -13 7 -18 -6z"
       id="path3581"
       style="fill:#808080" />
    <path
       d="M606 1456 c-20 -32 -20 -46 -1 -46 19 0 40 49 27 62 -5 5 -16 -1 -26 -16z"
       id="path3583"
       style="fill:#808080" />
    <path
       d="M670 1465 c0 -8 7 -15 15 -15 8 0 15 7 15 15 0 8 -7 15 -15 15 -8 0 -15 -7 -15 -15z"
       id="path3585"
       style="fill:#808080" />
    <path
       d="M1358 1473 c-2 -5 -5 -36 -7 -70 -2 -52 0 -63 13 -63 14 0 16 12 15 70 -1 61 -10 86 -21 63z"
       id="path3587"
       style="fill:#808080" />
    <path
       d="M1235 1460 c-10 -17 12 -37 25 -24 8 8 6 15 -4 23 -10 9 -16 9 -21 1z"
       id="path3589"
       style="fill:#808080" />
    <path
       d="M835 1450 c-3 -5 -4 -14 -1 -19 3 -5 -1 -12 -10 -15 -10 -4 -14 -15 -12 -33 4 -31 28 -44 28 -14 0 11 4 22 9 25 11 7 11 55 0 61 -4 3 -10 1 -14 -5z"
       id="path3591"
       style="fill:#808080" />
    <path
       d="M315 1424 c-4 -10 -11 -27 -16 -37 -10 -18 -5 -37 10 -37 14 0 34 71 22 83 -7 7 -12 5 -16 -9z"
       id="path3593"
       style="fill:#808080" />
    <path
       d="M670 1425 c0 -9 5 -15 11 -13 6 2 11 8 11 13 0 5 -5 11 -11 13 -6 2 -11 -4 -11 -13z"
       id="path3595"
       style="fill:#808080" />
    <path
       d="M257 1414 c-11 -11 -8 -44 3 -44 15 0 24 30 13 41 -5 5 -12 6 -16 3z"
       id="path3597"
       style="fill:#808080" />
    <path
       d="M1230 1367 c0 -29 -5 -58 -11 -64 -12 -12 -4 -33 12 -33 6 0 9 8 8 18 -1 9 3 30 9 45 17 41 15 87 -3 87 -11 0 -15 -13 -15 -53z"
       id="path3599"
       style="fill:#808080" />
    <path
       d="M734 1387 c-7 -20 -2 -47 11 -50 14 -3 19 43 6 56 -7 7 -12 6 -17 -6z"
       id="path3601"
       style="fill:#808080" />
    <path
       d="M1135 1391 c-7 -12 12 -24 25 -16 11 7 4 25 -10 25 -5 0 -11 -4 -15 -9z"
       id="path3603"
       style="fill:#808080" />
    <path
       d="M586 1354 c-4 -15 -5 -29 -2 -32 10 -9 36 20 36 39 0 29 -27 23 -34 -7z"
       id="path3605"
       style="fill:#808080" />
    <path
       d="M221 1334 c-24 -30 -28 -56 -8 -48 19 7 49 62 38 68 -5 4 -19 -6 -30 -20z"
       id="path3607"
       style="fill:#808080" />
    <path
       d="M654 1346 c-4 -10 -2 -22 4 -28 8 -8 13 -7 18 6 4 10 2 22 -4 28 -8 8 -13 7 -18 -6z"
       id="path3609"
       style="fill:#808080" />
    <path
       d="M1127 1333 c-6 -32 7 -53 24 -36 13 13 8 55 -7 60 -6 2 -14 -9 -17 -24z"
       id="path3611"
       style="fill:#808080" />
    <path
       d="M267 1312 c-20 -21 -22 -42 -6 -42 14 0 38 30 39 48 0 17 -14 15 -33 -6z"
       id="path3613"
       style="fill:#808080" />
    <path
       d="M1335 1317 c-9 -22 -2 -62 10 -60 6 1 11 14 13 29 4 32 -14 56 -23 31z"
       id="path3615"
       style="fill:#808080" />
    <path
       d="M715 1310 c-3 -6 1 -13 10 -16 19 -8 30 0 20 15 -8 14 -22 14 -30 1z"
       id="path3617"
       style="fill:#808080" />
    <path
       d="M560 1285 c-6 -8 -9 -19 -5 -24 8 -13 45 9 45 26 0 18 -25 16 -40 -2z"
       id="path3619"
       style="fill:#808080" />
    <path
       d="M635 1291 c-7 -12 12 -24 25 -16 11 7 4 25 -10 25 -5 0 -11 -4 -15 -9z"
       id="path3621"
       style="fill:#808080" />
    <path
       d="M792 1284 c4 -21 22 -23 26 -1 2 10 -3 17 -13 17 -10 0 -15 -6 -13 -16z"
       id="path3623"
       style="fill:#808080" />
    <path
       d="M1112 1264 c4 -21 22 -23 26 -1 2 10 -3 17 -13 17 -10 0 -15 -6 -13 -16z"
       id="path3625"
       style="fill:#808080" />
    <path
       d="M704 1259 c-3 -6 -2 -15 4 -21 13 -13 32 -2 32 18 0 16 -26 19 -36 3z"
       id="path3627"
       style="fill:#808080" />
    <path
       d="M616 1253 c-12 -12 -6 -43 9 -43 8 0 15 9 15 19 0 21 -13 34 -24 24z"
       id="path3629"
       style="fill:#808080" />
    <path
       d="M1204 1236 c-12 -19 -14 -30 -6 -38 12 -12 35 -1 26 14 -4 6 0 14 7 19 10 6 11 11 2 20 -8 8 -15 5 -29 -15z"
       id="path3631"
       style="fill:#808080" />
    <path
       d="M201 1218 c-34 -36 -38 -48 -18 -48 15 0 50 37 60 63 10 27 -9 20 -42 -15z"
       id="path3633"
       style="fill:#808080" />
    <path
       d="M537 1234 c-11 -11 -8 -44 3 -44 15 0 24 30 13 41 -5 5 -12 6 -16 3z"
       id="path3635"
       style="fill:#808080" />
    <path
       d="M776 1231 c-4 -5 -4 -16 0 -24 3 -8 -2 -17 -10 -20 -20 -8 -21 -37 -2 -37 8 0 17 13 21 29 3 16 13 32 21 35 9 3 12 10 9 16 -8 12 -32 13 -39 1z"
       id="path3637"
       style="fill:#808080" />
    <path
       d="M1314 1226 c-8 -20 -1 -49 12 -53 13 -4 28 43 19 57 -9 15 -25 12 -31 -4z"
       id="path3639"
       style="fill:#808080" />
    <path
       d="M680 1205 c-10 -12 -10 -19 -2 -27 9 -9 15 -7 26 7 23 32 0 49 -24 20z"
       id="path3641"
       style="fill:#808080" />
    <path
       d="M1107 1202 c-21 -23 -22 -52 -3 -52 8 0 16 14 19 33 6 40 4 42 -16 19z"
       id="path3643"
       style="fill:#808080" />
    <path
       d="M587 1173 c-13 -12 -7 -23 13 -23 11 0 20 7 20 15 0 15 -21 21 -33 8z"
       id="path3645"
       style="fill:#808080" />
    <path
       d="M1181 1171 c-14 -9 -9 -41 7 -41 15 0 34 28 27 40 -8 12 -16 13 -34 1z"
       id="path3647"
       style="fill:#808080" />
    <path
       d="M496 1146 c-26 -29 -30 -47 -11 -48 15 0 48 48 43 63 -3 10 -13 5 -32 -15z"
       id="path3649"
       style="fill:#808080" />
    <path
       d="M651 1142 c-15 -27 -14 -32 4 -32 20 0 31 28 17 42 -7 7 -14 4 -21 -10z"
       id="path3651"
       style="fill:#808080" />
    <path
       d="M1307 1153 c-4 -3 -7 -16 -7 -29 0 -12 -8 -25 -17 -28 -12 -5 -13 -10 -5 -18 17 -17 44 -1 37 21 -4 13 0 23 11 29 9 5 14 14 10 21 -8 12 -19 14 -29 4z"
       id="path3653"
       style="fill:#808080" />
    <path
       d="M310 1130 c0 -5 18 -33 40 -62 39 -52 49 -78 30 -78 -5 0 -10 -5 -10 -11 0 -6 7 -9 15 -5 21 8 45 -3 45 -21 0 -8 10 -23 23 -33 19 -17 20 -21 9 -40 -7 -12 -11 -25 -7 -28 3 -4 10 0 15 8 7 11 11 11 24 1 25 -21 19 -38 -24 -78 -28 -25 -38 -39 -31 -46 7 -7 22 1 47 26 21 20 41 37 45 37 4 0 17 -16 29 -35 12 -20 27 -41 34 -48 26 -26 96 -137 96 -151 0 -9 -11 -18 -25 -22 -14 -3 -30 -14 -35 -24 -5 -10 -30 -28 -55 -40 -25 -12 -45 -25 -45 -29 0 -4 -16 -13 -35 -21 -22 -9 -35 -20 -35 -32 0 -12 5 -16 18 -11 29 11 122 75 122 84 0 5 5 9 10 9 12 0 30 14 65 48 12 12 27 22 32 22 13 0 47 -50 40 -57 -3 -3 10 -18 29 -35 19 -17 34 -35 34 -42 0 -7 18 -32 41 -56 31 -33 39 -49 35 -66 -5 -18 0 -27 24 -40 16 -10 43 -37 60 -61 30 -41 53 -53 64 -34 3 4 -16 45 -42 89 -36 63 -52 82 -69 82 -13 0 -23 6 -23 13 0 8 -9 22 -20 32 -20 18 -27 45 -12 45 11 0 141 129 153 152 15 27 -12 35 -30 9 -32 -49 -128 -141 -147 -141 -11 0 -27 13 -37 30 l-18 30 88 84 c70 67 86 87 76 97 -10 10 -28 -4 -91 -69 -43 -45 -82 -82 -86 -82 -11 0 -36 27 -36 40 0 6 36 48 80 92 44 45 80 88 80 95 0 22 -27 14 -44 -13 -33 -49 -131 -144 -142 -137 -6 5 -38 49 -72 100 -34 50 -66 94 -72 98 -20 12 -9 35 41 84 38 36 50 54 45 67 -6 16 -10 15 -33 -11 -14 -17 -37 -45 -51 -63 -23 -31 -26 -32 -43 -16 -25 23 -24 32 6 56 14 11 25 24 25 29 0 16 -21 9 -40 -13 -15 -19 -20 -20 -34 -9 -9 7 -16 22 -16 32 0 11 -6 19 -14 19 -13 0 -26 20 -26 41 0 5 7 9 15 9 8 0 15 7 15 15 0 8 -5 15 -10 15 -6 0 -13 -7 -16 -15 -10 -24 -19 -18 -58 40 -32 49 -66 72 -66 45z"
       id="path3655"
       style="fill:#808080" />
    <path
       d="M731 1121 c-15 -27 -14 -31 9 -31 13 0 20 7 20 19 0 28 -17 35 -29 12z"
       id="path3657"
       style="fill:#808080" />
    <path
       d="M1072 1118 c2 -13 8 -23 13 -23 6 0 11 10 13 23 2 15 -2 22 -13 22 -11 0 -15 -7 -13 -22z"
       id="path3659"
       style="fill:#808080" />
    <path
       d="M535 1086 c-15 -19 -24 -40 -20 -45 7 -12 65 36 65 55 0 27 -20 23 -45 -10z"
       id="path3661"
       style="fill:#808080" />
    <path
       d="M1160 1094 c-14 -36 -12 -54 5 -54 9 0 15 9 15 24 0 13 5 26 12 28 13 5 2 28 -13 28 -5 0 -14 -12 -19 -26z"
       id="path3663"
       style="fill:#808080" />
    <path
       d="M608 1063 c-17 -20 -33 -63 -23 -63 9 0 65 63 65 72 0 14 -27 8 -42 -9z"
       id="path3665"
       style="fill:#808080" />
    <path
       d="M1047 1059 c-4 -15 -1 -19 11 -17 21 4 29 38 9 38 -8 0 -17 -9 -20 -21z"
       id="path3667"
       style="fill:#808080" />
    <path
       d="M696 1046 c-26 -29 -30 -47 -11 -48 15 0 48 48 43 63 -3 10 -13 5 -32 -15z"
       id="path3669"
       style="fill:#808080" />
    <path
       d="M1264 1049 c-3 -6 -2 -15 4 -21 13 -13 32 -2 32 18 0 16 -26 19 -36 3z"
       id="path3671"
       style="fill:#808080" />
    <path
       d="M1022 1008 c-15 -15 -16 -38 -1 -38 12 0 38 29 39 43 0 11 -25 8 -38 -5z"
       id="path3673"
       style="fill:#808080" />
    <path
       d="M1114 1005 c-3 -8 -3 -19 1 -24 8 -13 45 9 45 26 0 18 -39 16 -46 -2z"
       id="path3675"
       style="fill:#808080" />
    <path
       d="M1245 996 c-11 -8 -16 -20 -12 -30 6 -14 10 -14 27 -4 21 13 26 33 11 42 -4 3 -16 -1 -26 -8z"
       id="path3677"
       style="fill:#808080" />
    <path
       d="M985 940 c-10 -11 -15 -26 -11 -36 6 -15 8 -15 26 1 20 18 28 55 12 55 -5 0 -17 -9 -27 -20z"
       id="path3679"
       style="fill:#808080" />
    <path
       d="M1092 948 c-17 -17 -15 -38 3 -38 16 0 38 34 28 44 -9 9 -18 7 -31 -6z"
       id="path3681"
       style="fill:#808080" />
    <path
       d="M271 911 c-20 -17 -29 -31 -22 -35 12 -8 44 10 59 35 19 30 -2 30 -37 0z"
       id="path3683"
       style="fill:#808080" />
    <path
       d="M1210 926 c0 -21 21 -31 30 -15 5 7 6 17 4 21 -9 14 -34 9 -34 -6z"
       id="path3685"
       style="fill:#808080" />
    <path
       d="M1050 868 c-27 -29 -9 -50 20 -23 21 19 27 45 10 45 -5 0 -18 -10 -30 -22z"
       id="path3687"
       style="fill:#808080" />
    <path
       d="M1186 871 c-18 -20 -21 -41 -5 -41 13 0 39 25 39 39 0 19 -17 20 -34 2z"
       id="path3689"
       style="fill:#808080" />
    <path
       d="M186 861 c-12 -13 -14 -21 -6 -26 13 -8 40 12 40 31 0 20 -14 17 -34 -5z"
       id="path3691"
       style="fill:#808080" />
    <path
       d="M311 861 c-35 -26 -18 -46 20 -24 29 18 39 43 17 43 -7 0 -24 -9 -37 -19z"
       id="path3693"
       style="fill:#808080" />
    <path
       d="M942 867 c-6 -6 -14 -25 -18 -40 -6 -27 -5 -28 13 -16 11 6 25 20 32 31 19 30 -5 52 -27 25z"
       id="path3695"
       style="fill:#808080" />
    <path
       d="M132 829 c2 -6 8 -10 13 -10 5 0 11 4 13 10 2 6 -4 11 -13 11 -9 0 -15 -5 -13 -11z"
       id="path3697"
       style="fill:#808080" />
    <path
       d="M230 805 c0 -11 7 -15 23 -13 12 2 22 8 22 13 0 6 -10 11 -22 13 -16 2 -23 -2 -23 -13z"
       id="path3699"
       style="fill:#808080" />
    <path
       d="M364 807 c-5 -7 -21 -19 -35 -29 -21 -14 -22 -17 -7 -23 18 -7 91 43 82 57 -7 12 -27 9 -40 -5z"
       id="path3701"
       style="fill:#808080" />
    <path
       d="M1134 785 c-19 -26 -24 -39 -16 -47 8 -8 18 -3 36 17 14 15 26 34 26 41 0 28 -20 23 -46 -11z"
       id="path3703"
       style="fill:#808080" />
    <path
       d="M996 780 c-28 -32 -33 -50 -15 -50 12 0 59 50 59 62 0 20 -20 14 -44 -12z"
       id="path3705"
       style="fill:#808080" />
    <path
       d="M176 781 c-12 -13 -14 -21 -6 -26 13 -8 52 24 44 36 -8 14 -19 11 -38 -10z"
       id="path3707"
       style="fill:#808080" />
    <path
       d="M272 748 c-14 -14 -16 -38 -4 -38 12 0 32 23 32 37 0 16 -12 17 -28 1z"
       id="path3709"
       style="fill:#808080" />
    <path
       d="M368 712 c-29 -17 -38 -42 -15 -42 14 1 36 17 56 43 18 23 -3 23 -41 -1z"
       id="path3711"
       style="fill:#808080" />
    <path
       d="M1067 683 c-20 -27 -24 -40 -16 -47 8 -8 19 -1 40 24 16 19 29 40 29 47 0 24 -25 13 -53 -24z"
       id="path3713"
       style="fill:#808080" />
    <path
       d="M286 661 c-12 -13 -14 -21 -6 -26 13 -8 40 12 40 31 0 20 -14 17 -34 -5z"
       id="path3715"
       style="fill:#808080" />
    <path
       d="M196 623 c-50 -17 -70 -33 -58 -45 6 -6 18 -5 31 1 11 6 30 16 41 21 11 6 27 10 35 10 8 0 15 7 15 15 0 18 -12 17 -64 -2z"
       id="path3717"
       style="fill:#808080" />
    <path
       d="M642 421 c-42 -31 -54 -51 -29 -51 20 0 80 55 76 69 -3 8 -18 2 -47 -18z"
       id="path3719"
       style="fill:#808080" />
    <path
       d="M405 384 c-14 -10 -16 -17 -8 -25 15 -15 43 -4 43 15 0 22 -13 26 -35 10z"
       id="path3721"
       style="fill:#808080" />
    <path
       d="M335 350 c-3 -5 -15 -10 -26 -10 -10 0 -19 -7 -19 -15 0 -8 6 -15 13 -15 23 0 78 31 72 41 -8 12 -32 12 -40 -1z"
       id="path3723"
       style="fill:#808080" />
    <path
       d="M533 345 c-3 -9 -3 -18 0 -21 7 -8 47 15 47 26 0 16 -40 11 -47 -5z"
       id="path3725"
       style="fill:#808080" />
    <path
       d="M718 335 c-49 -42 -30 -62 23 -24 30 21 39 49 17 49 -7 0 -25 -12 -40 -25z"
       id="path3727"
       style="fill:#808080" />
    <path
       d="M222 308 c-6 -6 -25 -11 -42 -10 -23 0 -30 -4 -30 -19 0 -20 15 -26 25 -9 4 6 11 7 17 4 5 -4 20 -2 31 4 12 6 30 13 40 16 10 3 15 10 12 16 -8 14 -38 13 -53 -2z"
       id="path3729"
       style="fill:#808080" />
    <path
       d="M457 314 c-3 -3 -3 -12 -1 -19 7 -17 44 -7 44 11 0 14 -31 20 -43 8z"
       id="path3731"
       style="fill:#808080" />
    <path
       d="M388 277 c-21 -10 -38 -25 -38 -33 0 -18 19 -18 26 0 3 8 13 12 23 9 20 -5 49 24 35 35 -5 5 -26 0 -46 -11z"
       id="path3733"
       style="fill:#808080" />
    <path
       d="M601 260 c-13 -11 -29 -20 -36 -20 -6 0 -20 -9 -30 -20 -10 -11 -29 -20 -42 -20 -14 0 -23 -6 -23 -15 0 -17 35 -21 45 -5 3 6 15 10 26 10 10 0 19 4 19 8 0 8 12 15 78 45 12 6 22 16 22 24 0 19 -31 15 -59 -7z"
       id="path3735"
       style="fill:#808080" />
    <path
       d="M253 224 c-2 -6 -15 -9 -29 -6 -14 2 -32 -2 -42 -11 -9 -8 -28 -18 -42 -21 -14 -3 2 -3 35 0 82 7 94 9 101 17 4 4 16 7 26 7 10 0 18 7 18 15 0 17 -60 16 -67 -1z"
       id="path3737"
       style="fill:#808080" />
    <path
       d="M415 166 c-11 -6 -31 -17 -44 -25 -17 -9 -20 -16 -12 -24 8 -8 14 -8 23 1 7 7 20 12 31 12 20 0 47 22 47 39 0 14 -19 13 -45 -3z"
       id="path3739"
       style="fill:#808080" />
    <path
       d="M312 114 c4 -21 22 -23 26 -1 2 10 -3 17 -13 17 -10 0 -15 -6 -13 -16z"
       id="path3741"
       style="fill:#808080" />
  </g>
</svg>
