<?xml version="1.0" encoding="UTF-8" standalone="no"?>
<!-- Created with Inkscape (http://www.inkscape.org/) -->

<svg
   xmlns:dc="http://purl.org/dc/elements/1.1/"
   xmlns:cc="http://creativecommons.org/ns#"
   xmlns:rdf="http://www.w3.org/1999/02/22-rdf-syntax-ns#"
   xmlns:svg="http://www.w3.org/2000/svg"
   xmlns="http://www.w3.org/2000/svg"
   xmlns:sodipodi="http://sodipodi.sourceforge.net/DTD/sodipodi-0.dtd"
   xmlns:inkscape="http://www.inkscape.org/namespaces/inkscape"
   id="svg3039"
   version="1.1"
   inkscape:version="0.48.2 r9819"
   width="229"
   height="229"
   sodipodi:docname="wenke.gif">
  <metadata
     id="metadata3045">
    <rdf:RDF>
      <cc:Work
         rdf:about="">
        <dc:format>image/svg+xml</dc:format>
        <dc:type
           rdf:resource="http://purl.org/dc/dcmitype/StillImage" />
        <dc:title></dc:title>
      </cc:Work>
    </rdf:RDF>
  </metadata>
  <defs
     id="defs3043" />
  <sodipodi:namedview
     pagecolor="#ffffff"
     bordercolor="#666666"
     borderopacity="1"
     objecttolerance="10"
     gridtolerance="10"
     guidetolerance="10"
     inkscape:pageopacity="0"
     inkscape:pageshadow="2"
     inkscape:window-width="1014"
     inkscape:window-height="689"
     id="namedview3041"
     showgrid="false"
     inkscape:zoom="1.650655"
     inkscape:cx="106.4299"
     inkscape:cy="114.5"
     inkscape:window-x="0"
     inkscape:window-y="0"
     inkscape:window-maximized="0"
     inkscape:current-layer="svg3039" />
  <path
     style="fill:#000000"
     d="m 55.5,175 c -2.539773,-3.61743 -6.088037,-5.88672 -10.57041,-5 -2.97653,0 -5.95306,0 -8.92959,0 0,-5.33333 0,-10.66667 0,-16 4.522773,0 9.045547,0 13.56832,0 3.589341,-2.84875 8.787395,-10.72906 11.760759,-9.89625 1.039827,11.78112 0.922869,23.69915 -0.03372,35.46221 C 58.833826,179.89001 57.520886,176.04238 55.5,175 z M 58,161.31291 c 0,-3.56236 0,-7.12473 0,-10.68709 -5.575731,3.70115 -8.252195,11.42577 -4.430092,17.28446 2.643735,5.3679 6.573679,2.09441 4.409385,-2.78484 0.01439,-1.27079 0.02056,-2.54166 0.02071,-3.81253 z m -10,0.25388 c 2.057984,-8.21905 -12.111588,-4.56557 -9.029115,2.57735 -0.487691,2.80687 13.030277,3.80114 9.029115,-2.57735 z M 167,161.5 c 1.00006,-4.7902 -2.19616,-17.25562 2.80806,-16.99464 4.46356,3.4408 7.35421,10.12407 13.82808,8.49464 3.12128,0 6.24257,0 9.36386,0 0,5.33333 0,10.66667 0,16 -4.52277,0 -9.04555,0 -13.56832,0 -3.61299,2.8253 -8.78314,10.82695 -11.81419,9.85683 C 166.85305,173.10319 167.11631,167.28578 167,161.5 z m 10,0 c 2.25262,-3.66454 -7.30687,-14.9278 -6,-6.96569 0,5.94662 0,11.89325 0,17.83987 3.08453,-2.76658 7.00888,-6.23118 6,-10.87418 z m 12.8075,-0.27639 c 2.72975,-7.05148 -12.8216,-5.90295 -8.84228,1.25493 -2.29582,5.94577 11.23489,3.81745 8.84228,-1.25493 z m -40.83731,-28.16792 c 0.90221,-6.72433 10.17794,4.51945 1.82085,1.97815 -1.22924,0.2474 -3.18651,-0.45584 -1.82085,-1.97815 z M 102.44971,108.25 c 1.73736,-6.99847 3.28933,-16.324916 -4.921809,-19.160868 -3.379895,-11.589195 16.322859,-14.258006 16.209409,-1.698564 0.49182,8.607833 -3.49886,17.818622 -10.10286,23.379892 -1.87906,1.11622 -1.38792,-1.71338 -1.18474,-2.52046 z M 167,49.5 c 1.00006,-4.790199 -2.19616,-17.255621 2.80806,-16.994639 4.46356,3.440801 7.35421,10.124065 13.82808,8.494639 3.12128,0 6.24257,0 9.36386,0 0,5.333333 0,10.666667 0,16 -4.52277,0 -9.04555,0 -13.56832,0 -3.61299,2.825296 -8.78314,10.826955 -11.81419,9.856832 C 166.85305,61.103194 167.11631,55.285775 167,49.5 z m 10,0 c 2.25262,-3.664538 -7.30687,-14.927802 -6,-6.965695 0,5.946626 0,11.893251 0,17.839877 3.09094,-2.782772 7.00419,-6.211254 6,-10.874182 z m 12.8075,-0.276393 c 2.72975,-7.051482 -12.82161,-5.902947 -8.84228,1.254929 -2.29582,5.945769 11.2349,3.817457 8.84228,-1.254929 z M 55.5,62 C 52.960227,58.382574 49.411963,56.113282 44.92959,57 41.95306,57 38.97653,57 36,57 c 0,-5.333333 0,-10.666667 0,-16 4.522773,0 9.045547,0 13.56832,0 3.589341,-2.848751 8.787395,-10.729055 11.760759,-9.896246 1.039827,11.781121 0.922869,23.69915 -0.03372,35.462212 C 58.833826,66.890014 57.520886,63.042379 55.5,62 z M 58,48.312909 c 0,-3.562364 0,-7.124727 0,-10.687091 -5.575732,3.701153 -8.252195,11.425769 -4.430091,17.284468 2.643737,5.367903 6.573678,2.094398 4.409384,-2.784846 0.01439,-1.270789 0.02056,-2.541664 0.02071,-3.812531 z M 48,48.566794 C 50.057989,40.347739 35.88841,44.001223 38.970885,51.144145 38.486286,53.946649 52.002463,54.954755 48,48.566794 z"
     id="path3049"
     inkscape:connector-curvature="0" />
</svg>
